<?xml version="1.0" encoding="utf-8"?>
<!-- Generator: Adobe Illustrator 17.0.0, SVG Export Plug-In . SVG Version: 6.00 Build 0)  -->
<!DOCTYPE svg PUBLIC "-//W3C//DTD SVG 1.1//EN" "http://www.w3.org/Graphics/SVG/1.1/DTD/svg11.dtd">
<svg version="1.1" id="Слой_1" xmlns="http://www.w3.org/2000/svg" xmlns:xlink="http://www.w3.org/1999/xlink" x="0px" y="0px"
	 width="32px" height="31.773px" viewBox="408.481 286.349 32 31.773" enable-background="new 408.481 286.349 32 31.773"
	 xml:space="preserve">
<g display="none">
	<g display="inline">
		<path fill="#FEFEFE" d="M393,389.28c-19.667,0-39.334-0.053-59,0.066c-2.502,0.015-3.067-0.567-3.064-3.066
			c0.082-58.333,0.082-116.667,0-175c-0.004-2.499,0.564-3.067,3.063-3.063c58.333,0.082,116.667,0.082,175,0
			c2.5-0.004,3.081,0.562,3.066,3.064c-0.119,19.666-0.066,39.333-0.066,59c-0.333,0.115-0.785,0.231-0.942,0.027
			c-7.161-9.285-18.636-9.367-28.31-13.281c-28.18-8.636-56.052-18.224-84.192-26.984c-13.67-4.255-27.256-8.804-40.808-13.433
			c-2.211-0.755-4.445-1.419-6.722-1.924c-8.938-1.984-16.111,5.293-13.561,14.055c3.908,13.431,8.444,26.671,12.692,39.997
			c9.71,30.461,20.151,60.686,29.672,91.209c1.613,5.684,3.624,11.246,5.232,16.934c1.144,4.047,2.969,7.639,6.67,10.008
			C392.531,387.401,393.359,388.072,393,389.28z"/>
		<path fill="#BAE0F5" d="M393,389.28c-8.724-4.044-8.974-13.054-11.87-20.465c-1.06-2.712-1.453-5.683-2.15-8.536
			c0.717-0.601,1.558-0.695,2.319-0.256c5.938,3.425,11.909,2.253,17.797,0.014c11.489-4.369,21.458-11.285,30.968-18.911
			c18.189-14.585,33.922-31.394,46.066-51.39c2.764-4.551,5.291-9.263,6.575-14.501c1.287-5.249,1.817-10.482-0.373-15.674
			c-0.599-1.421-0.474-1.474,0.696-3.327c7.842,1.629,15.399,4.145,22.766,7.267c3.117,1.321,3.989,4.656,6.205,6.779
			c0,2.667,0,5.333,0,8c-1.048,3.607-3.143,6.511-5.849,9.079c-8.221,7.804-15.309,16.705-23.561,24.471
			c-2.76,2.598-2.442,4.524,0.117,7.016c7.163,6.973,14.166,14.111,21.244,21.171c2.134,2.129,4.129,4.359,5.515,7.06
			c2.463,4.802,2.098,9.551-1.609,13.414c-8.075,8.414-16.301,16.691-24.75,24.729c-4.09,3.891-9.422,4.043-14.264,1.053
			c-2.432-1.501-4.496-3.427-6.502-5.437c-6.945-6.958-13.967-13.841-20.817-20.891c-2.535-2.609-4.47-2.736-7.02-0.025
			c-7.882,8.376-16.893,15.596-24.81,23.936c-2.475,2.607-5.232,4.519-8.695,5.425C398.333,389.28,395.667,389.28,393,389.28z"/>
		<path fill="#FEFEFE" d="M401,389.28c11.979-9.287,22.388-20.283,33.156-30.862c3.265-3.208,4.918-2.916,7.842,0.171
			c7.447,7.861,15.24,15.394,22.902,23.052c6.445,6.441,12.575,8.442,20.349,0.011c6.322-6.855,13.145-13.248,19.738-19.854
			c6.59-6.603,6.694-12.086,0.047-18.894c-7.916-8.108-15.904-16.152-24.075-24.002c-2.744-2.636-2.986-4.173-0.146-7.097
			C491.449,300.86,502.517,290.3,512,278.28c0,35.753-0.046,71.506,0.081,107.258c0.011,3.119-0.704,3.834-3.823,3.823
			C472.506,389.234,436.753,389.28,401,389.28z"/>
		<path fill="#CEE9FA" d="M483.029,256.234c-0.674,3.389,2.068,5.866,2.16,9.318c0.31,11.585-5.082,20.957-11.08,29.898
			c-12.662,18.875-28.128,35.201-46.28,49.012c-7.961,6.057-16.222,11.477-25.331,15.571c-7.775,3.495-15.624,5.486-23.518,0.247
			c-3.285-9.7-6.623-19.383-9.841-29.105c-4.842-14.624-9.376-29.345-14.492-43.885c-4.289-12.189-7.769-24.661-11.657-36.992
			c-2.336-7.408-4.833-14.765-7.137-22.182c-2.559-8.237,5.873-17.337,14.196-14.897c14.285,4.188,28.419,8.895,42.603,13.426
			c12.007,3.836,23.999,7.717,35.99,11.603c11.791,3.821,23.559,7.715,35.364,11.491c5.163,1.651,10.394,3.09,15.596,4.619
			C480.884,254.733,482.161,255.107,483.029,256.234z"/>
		<path fill="#FDFDFD" d="M403.105,322.284c8.808-0.638,13.745,5.617,10.838,13.743c-2.171,6.068-6.491,9.995-12.518,11.908
			c-7.241,2.299-14.759-4.758-13.068-12.19c1.179-5.182,3.445-9.649,8.883-11.635C398.992,322.852,401.058,322.599,403.105,322.284z
			"/>
		<path fill="#FDFDFD" d="M446.913,274.405c4.159-9.339,15.794-11.979,21.774-4.94c3.228,3.801,3.07,7.922-0.408,14.256
			c-2.802,5.103-7.524,7.555-12.844,8.36c-6.32,0.956-10.447-4.031-10.441-11.726C445.326,278.272,445.515,276.143,446.913,274.405z
			"/>
		<path fill="#63707F" d="M417.003,308.262c-2.402,0.111-4.445-0.587-4.876-3.199c-0.502-3.044,1.616-4.286,4.15-4.444
			c4.721-0.294,6.777-3.033,7.348-7.309c0.324-2.424,1.182-4.347,3.999-3.988c2.972,0.378,3.466,2.644,3.369,5.198
			C430.719,301.721,424.132,308.207,417.003,308.262z"/>
		<path fill="#64717F" d="M446.913,274.405c0.53,2.361,0.485,4.536-1.919,5.95c-4.37,0.259-6.32-3.175-8.569-5.898
			c-1.041-1.261-0.984-3.22,0.439-4.538c1.525-1.412,3.352-1.526,4.963-0.224C443.62,271.144,445.226,272.825,446.913,274.405z"/>
		<path fill="#647280" d="M403.105,322.284c-1.412,2.353-3.568,2.318-5.866,1.826c-1.585-1.684-3.319-3.254-4.709-5.086
			c-1.197-1.577-1.197-3.504,0.25-4.999c1.317-1.361,3.315-1.43,4.567-0.356C400.014,315.957,403.56,317.845,403.105,322.284z"/>
	</g>
</g>
<g>
	<path fill="#BAE0F5" d="M433.86,293.663c0,0,4.909,1.439,5.237,1.64c0.228,0.14,1.159,0.584,1.314,1.209
		c0.209,0.843-0.105,1.071-0.254,1.403c-0.202,0.45-4.174,4.668-5.672,6.12c-0.108,0.105-0.28,0.254-0.261,0.545
		c0.019,0.293,0.112,0.351,0.231,0.47c0.119,0.119,4.687,4.747,4.687,4.747s0.566,0.405,0.631,1.12
		c0.063,0.698-0.052,0.991-0.16,1.127c-1.022,1.284-3.571,3.936-4.941,5.053c-0.205,0.167-0.493,0.321-1,0.351
		c-0.741,0.044-1.226-0.358-1.396-0.455c-0.209-0.119-3.619-3.494-4.777-4.747c-0.088-0.095-0.307-0.369-0.605-0.359
		c-0.258,0.008-0.493,0.221-0.672,0.4c-0.179,0.179-4.233,4.362-5.88,5.527c-0.245,0.173-0.864,0.373-1.373,0.291
		c-0.694-0.112-1.141-0.842-1.276-1.172c-0.53-1.291-1.776-5.404-1.776-5.404L433.86,293.663z"/>
	<path fill="#CEE9FA" d="M409.141,287.102c0.963-0.963,1.411-0.728,1.769-0.728s24.159,7.669,24.159,7.669s0.672,0.851,0.493,1.926
		c-0.179,1.075-2.135,6.613-6.224,10.344c-2.503,2.284-7.568,6.538-10.031,6.851c-2.463,0.313-3-0.358-3-0.358
		s-7.586-23.482-7.68-23.834C408.582,288.804,408.111,288.132,409.141,287.102z"/>
	
		<ellipse transform="matrix(-0.7071 -0.7071 0.7071 -0.7071 524.2777 813.2022)" fill="#FFFFFF" cx="430.559" cy="298.02" rx="2.09" ry="2.578"/>
	
		<ellipse transform="matrix(-0.7071 -0.7071 0.7071 -0.7071 499.7639 823.3558)" fill="#FFFFFF" cx="420.405" cy="308.173" rx="2.09" ry="2.578"/>
	<path fill="#63707F" d="M420.138,304.721c0.474,0.474,0.804,0.898,0.368,1.349c-0.349,0.361-0.875,0.106-1.349-0.368
		c-0.474-0.474-0.792-0.918-0.368-1.349C419.196,303.937,419.663,304.246,420.138,304.721z"/>
	<path fill="#63707F" d="M428.064,296.794c0.474,0.474,0.804,0.898,0.368,1.35c-0.349,0.361-0.875,0.106-1.349-0.368
		c-0.474-0.474-0.792-0.918-0.368-1.349C427.122,296.011,427.589,296.32,428.064,296.794z"/>
	<path fill="#63707F" d="M422.268,302.731c0.146,0.912,1.752,0.683,2.575-0.151s1.242-2.558,0.252-2.642
		c-1.052-0.09-0.464,0.941-1.159,1.595C423.247,302.182,422.105,301.711,422.268,302.731z"/>
</g>
</svg>
